<svg width="25" height="24" viewBox="0 0 25 24" fill="none" xmlns="http://www.w3.org/2000/svg">
<g id="layout-dashboard">
<g id="Group 2283">
<path id="Vector" d="M19.0894 21C19.6861 21 20.2584 20.7629 20.6803 20.341C21.1023 19.919 21.3394 19.3467 21.3394 18.75V6.375C21.3394 6.07663 21.2208 5.79048 21.0099 5.57951C20.7989 5.36853 20.5127 5.25 20.2144 5.25H16.8394V11.4375M19.0894 21C18.4926 21 17.9203 20.7629 17.4984 20.341C17.0764 19.919 16.8394 19.3467 16.8394 18.75V11.4375M19.0894 21H6.71436C5.81925 21 4.96081 20.6444 4.32787 20.0115C3.69493 19.3786 3.33936 18.5201 3.33936 17.625V4.125C3.33936 3.82663 3.45788 3.54048 3.66886 3.32951C3.87984 3.11853 4.16599 3 4.46436 3H15.7144C16.0127 3 16.2989 3.11853 16.5099 3.32951C16.7208 3.54048 16.8394 3.82663 16.8394 4.125V11.4375" stroke="#2C2C2C" stroke-linecap="round" stroke-linejoin="round"/>
<path id="Vector_2" d="M7.8042 7.5H12.3042" stroke="#2C2C2C" stroke-linecap="round" stroke-linejoin="round"/>
<path id="Vector_3" d="M7.8042 12H12.3042" stroke="#2C2C2C" stroke-linecap="round" stroke-linejoin="round"/>
<path id="Vector_4" d="M7.8042 16.5H12.3042" stroke="#2C2C2C" stroke-linecap="round" stroke-linejoin="round"/>
</g>
</g>
</svg>
