<svg width="17" height="19" viewBox="0 0 17 19" fill="none" xmlns="http://www.w3.org/2000/svg">
<path id="Subtract" fill-rule="evenodd" clip-rule="evenodd" d="M16.7617 18.5019C16.1641 18.5019 15.5909 18.2645 15.1684 17.8419C14.7458 17.4193 14.5084 16.8462 14.5084 16.2485V1.60177C14.5084 1.30296 14.3897 1.01639 14.1784 0.805093C13.9671 0.593801 13.6805 0.475098 13.3817 0.475098H2.11496C1.81614 0.475098 1.52957 0.593801 1.31828 0.805093C1.10698 1.01639 0.988281 1.30296 0.988281 1.60177V15.1219C0.988281 16.0183 1.34439 16.878 1.97827 17.5119C2.61214 18.1458 3.47187 18.5019 4.3683 18.5019H16.7617ZM4.96106 4.98179C4.96106 4.70524 5.18525 4.48105 5.4618 4.48105H9.96459C10.2411 4.48105 10.4653 4.70524 10.4653 4.98179C10.4653 5.25834 10.2411 5.48253 9.96459 5.48253H5.4618C5.18525 5.48253 4.96106 5.25834 4.96106 4.98179ZM4.96106 9.48849C4.96106 9.21193 5.18525 8.98774 5.4618 8.98774H9.96459C10.2411 8.98774 10.4653 9.21193 10.4653 9.48849C10.4653 9.76504 10.2411 9.98923 9.96459 9.98923H5.4618C5.18525 9.98923 4.96106 9.76504 4.96106 9.48849ZM5.4618 13.4944C5.18525 13.4944 4.96106 13.7186 4.96106 13.9952C4.96106 14.2717 5.18525 14.4959 5.4618 14.4959H9.96459C10.2411 14.4959 10.4653 14.2717 10.4653 13.9952C10.4653 13.7186 10.2411 13.4944 9.96459 13.4944H5.4618Z" fill="#2C2C2C"/>
</svg>
