<svg width="25" height="24" viewBox="0 0 25 24" fill="none" xmlns="http://www.w3.org/2000/svg">
<g id="layout-dashboard">
<path id="Vector" d="M18.8386 3.00018C19.2061 3.00029 19.569 3.08143 19.9016 3.23783C20.2342 3.39422 20.5281 3.62203 20.7626 3.90501C20.9971 4.188 21.1663 4.5192 21.2581 4.87504C21.3499 5.23088 21.3622 5.60259 21.294 5.9637C21.2258 6.32481 21.0788 6.66644 20.8635 6.96425C20.6481 7.26207 20.3698 7.50874 20.0483 7.68669C19.7267 7.86465 19.3699 7.96952 19.0032 7.99383C18.6365 8.01814 18.269 7.96129 17.9268 7.82733L13.3715 12.3815C14.1204 13.4663 14.4527 14.7848 14.3074 16.0949L16.9309 16.8817C17.3022 16.4437 17.8131 16.1469 18.3775 16.0412C18.9419 15.9355 19.5255 16.0273 20.0301 16.3013C20.5348 16.5753 20.9297 17.0147 21.1486 17.5456C21.3674 18.0765 21.3967 18.6665 21.2317 19.2165C21.0666 19.7665 20.7172 20.2429 20.2422 20.5656C19.7673 20.8883 19.1956 21.0376 18.6235 20.9884C18.0514 20.9392 17.5137 20.6946 17.1007 20.2956C16.6878 19.8965 16.4248 19.3675 16.356 18.7974L13.7335 18.0095C13.1791 19.091 12.2821 19.9583 11.1826 20.476C10.0832 20.9938 8.84316 21.1327 7.65638 20.8711C6.4696 20.6095 5.4029 19.9622 4.62294 19.0303C3.84298 18.0983 3.3937 16.9342 3.34531 15.7199L3.34131 15.498L3.34531 15.277C3.38428 14.3038 3.68104 13.3584 4.20524 12.5375C4.72944 11.7166 5.46227 11.0496 6.32878 10.6048L5.54092 7.98131C4.96455 7.91211 4.43028 7.64429 4.02996 7.22389C3.62963 6.8035 3.38825 6.25678 3.34731 5.67771L3.34131 5.49974L3.34631 5.33577C3.37336 4.92383 3.50202 4.525 3.7208 4.17491C3.93958 3.82482 4.24167 3.53437 4.60007 3.3295C4.95848 3.12463 5.36205 3.01173 5.77474 3.00087C6.18743 2.99 6.59638 3.08153 6.96506 3.26726C7.33375 3.453 7.65069 3.72716 7.88759 4.06525C8.12448 4.40335 8.27394 4.79486 8.32262 5.20481C8.3713 5.61476 8.31769 6.03038 8.16657 6.41456C8.01544 6.79873 7.77152 7.13949 7.45659 7.40641L8.24345 10.0309C9.55353 9.88564 10.8721 10.2179 11.9568 10.9668L16.511 6.41158C16.417 6.17242 16.3607 5.92013 16.344 5.66371L16.339 5.49974L16.344 5.33577C16.3857 4.70253 16.6666 4.10883 17.1298 3.6751C17.5931 3.24137 18.204 3.00008 18.8386 3.00018Z" fill="#2C2C2C"/>
</g>
</svg>
