<svg width="25" height="24" viewBox="0 0 25 24" fill="none" xmlns="http://www.w3.org/2000/svg">
<g id="layout-dashboard">
<g id="Group 2285">
<path id="Vector" d="M5.51074 6.30269L6.94518 11.083M13.2533 17.3934L18.0359 18.8279" stroke="#2C2C2C" stroke-linecap="round" stroke-linejoin="round"/>
<path id="Vector_2" d="M11.9817 12.3566L18.4609 5.87743" stroke="#2C2C2C" stroke-linecap="round" stroke-linejoin="round"/>
<path id="Vector_3" d="M3.33887 4.68718C3.33887 4.90879 3.38252 5.12824 3.46733 5.33299C3.55213 5.53773 3.67644 5.72377 3.83315 5.88047C3.98985 6.03718 4.17589 6.16149 4.38064 6.24629C4.58538 6.3311 4.80483 6.37475 5.02644 6.37475C5.24806 6.37475 5.4675 6.3311 5.67225 6.24629C5.877 6.16149 6.06303 6.03718 6.21974 5.88047C6.37644 5.72377 6.50075 5.53773 6.58556 5.33299C6.67037 5.12824 6.71402 4.90879 6.71402 4.68718C6.71402 4.46556 6.67037 4.24612 6.58556 4.04137C6.50075 3.83663 6.37644 3.65059 6.21974 3.49388C6.06303 3.33718 5.877 3.21287 5.67225 3.12806C5.4675 3.04325 5.24806 2.9996 5.02644 2.9996C4.80483 2.9996 4.58538 3.04325 4.38064 3.12806C4.17589 3.21287 3.98985 3.33718 3.83315 3.49388C3.67644 3.65059 3.55213 3.83663 3.46733 4.04137C3.38252 4.24612 3.33887 4.46556 3.33887 4.68718Z" stroke="#2C2C2C" stroke-linecap="round" stroke-linejoin="round"/>
<path id="Vector_4" d="M17.9636 4.68718C17.9636 5.13475 18.1414 5.56399 18.4579 5.88047C18.7744 6.19696 19.2036 6.37475 19.6512 6.37475C20.0988 6.37475 20.528 6.19696 20.8445 5.88047C21.161 5.56399 21.3388 5.13475 21.3388 4.68718C21.3388 4.23961 21.161 3.81036 20.8445 3.49388C20.528 3.1774 20.0988 2.9996 19.6512 2.9996C19.2036 2.9996 18.7744 3.1774 18.4579 3.49388C18.1414 3.81036 17.9636 4.23961 17.9636 4.68718Z" stroke="#2C2C2C" stroke-linecap="round" stroke-linejoin="round"/>
<path id="Vector_5" d="M17.9636 19.3128C17.9636 19.7604 18.1414 20.1896 18.4579 20.5061C18.7744 20.8226 19.2036 21.0004 19.6512 21.0004C20.0988 21.0004 20.528 20.8226 20.8445 20.5061C21.161 20.1896 21.3388 19.7604 21.3388 19.3128C21.3388 18.8652 21.161 18.436 20.8445 18.1195C20.528 17.803 20.0988 17.6252 19.6512 17.6252C19.2036 17.6252 18.7744 17.803 18.4579 18.1195C18.1414 18.436 17.9636 18.8652 17.9636 19.3128Z" stroke="#2C2C2C" stroke-linecap="round" stroke-linejoin="round"/>
<path id="Vector_6" d="M3.33887 15.9377C3.33887 17.2804 3.87226 18.5681 4.8217 19.5176C5.77115 20.467 7.05887 21.0004 8.40159 21.0004C9.74431 21.0004 11.032 20.467 11.9815 19.5176C12.9309 18.5681 13.4643 17.2804 13.4643 15.9377C13.4643 14.5949 12.9309 13.3072 11.9815 12.3578C11.032 11.4083 9.74431 10.8749 8.40159 10.8749C7.05887 10.8749 5.77115 11.4083 4.8217 12.3578C3.87226 13.3072 3.33887 14.5949 3.33887 15.9377Z" stroke="#2C2C2C" stroke-linecap="round" stroke-linejoin="round"/>
</g>
</g>
</svg>
