<svg width="24" height="24" viewBox="0 0 24 24" fill="none" xmlns="http://www.w3.org/2000/svg">
<g id="layout-dashboard">
<g id="Group 2284">
<path id="Vector" d="M3 21V6.375C3 5.47989 3.35558 4.62145 3.98851 3.98851C4.62145 3.35558 5.47989 3 6.375 3H17.625C18.5201 3 19.3786 3.35558 20.0115 3.98851C20.6444 4.62145 21 5.47989 21 6.375V13.125C21 14.0201 20.6444 14.8786 20.0115 15.5115C19.3786 16.1444 18.5201 16.5 17.625 16.5H7.5L3 21Z" stroke="#2C2C2C" stroke-width="1.6875" stroke-linecap="round" stroke-linejoin="round"/>
</g>
<path id="Subtract" fill-rule="evenodd" clip-rule="evenodd" d="M3 6.375V21L7.5 16.5H17.625C18.5201 16.5 19.3786 16.1444 20.0115 15.5115C20.6444 14.8786 21 14.0201 21 13.125V6.375C21 5.47989 20.6444 4.62145 20.0115 3.98851C19.3786 3.35558 18.5201 3 17.625 3H6.375C5.47989 3 4.62145 3.35558 3.98851 3.98851C3.35558 4.62145 3 5.47989 3 6.375ZM16.5 10.5904C16.9641 10.5904 17.3404 10.2141 17.3404 9.75001C17.3404 9.28589 16.9641 8.90964 16.5 8.90964C16.0359 8.90964 15.6596 9.28589 15.6596 9.75001C15.6596 10.2141 16.0359 10.5904 16.5 10.5904ZM12.8404 9.75001C12.8404 10.2141 12.4641 10.5904 12 10.5904C11.5359 10.5904 11.1596 10.2141 11.1596 9.75001C11.1596 9.28589 11.5359 8.90964 12 8.90964C12.4641 8.90964 12.8404 9.28589 12.8404 9.75001ZM7.5 10.5904C7.96412 10.5904 8.34036 10.2141 8.34036 9.75001C8.34036 9.28589 7.96412 8.90964 7.5 8.90964C7.03588 8.90964 6.65963 9.28589 6.65963 9.75001C6.65963 10.2141 7.03588 10.5904 7.5 10.5904Z" fill="#2C2C2C"/>
</g>
</svg>
