<svg width="20" height="19" viewBox="0 0 20 19" fill="none" xmlns="http://www.w3.org/2000/svg">
<g id="Group 1659">
<path id="Vector" d="M10.3394 18.5C15.3099 18.5 19.3394 14.4706 19.3394 9.50003C19.3394 4.52947 15.3099 0.500031 10.3394 0.500031C5.36879 0.500031 1.33936 4.52947 1.33936 9.50003C1.33936 14.4706 5.36879 18.5 10.3394 18.5Z" stroke="#5A5F62" stroke-linecap="round" stroke-linejoin="round"/>
<path id="Vector_2" d="M10.3393 13.1001C12.3275 13.1001 13.9393 11.4883 13.9393 9.50006C13.9393 7.51183 12.3275 5.90005 10.3393 5.90005C8.35103 5.90005 6.73926 7.51183 6.73926 9.50006C6.73926 11.4883 8.35103 13.1001 10.3393 13.1001Z" stroke="#5A5F62" stroke-linecap="round" stroke-linejoin="round"/>
<path id="Vector_3" d="M3.97632 3.13702L7.79232 6.95302" stroke="#5A5F62" stroke-linecap="round" stroke-linejoin="round"/>
<path id="Vector_4" d="M12.8864 12.047L16.7024 15.863" stroke="#5A5F62" stroke-linecap="round" stroke-linejoin="round"/>
<path id="Vector_5" d="M12.8864 6.95302L16.7024 3.13702" stroke="#5A5F62" stroke-linecap="round" stroke-linejoin="round"/>
<path id="Vector_6" d="M12.8864 6.95303L16.0634 3.77603" stroke="#5A5F62" stroke-linecap="round" stroke-linejoin="round"/>
<path id="Vector_7" d="M3.97632 15.863L7.79232 12.047" stroke="#5A5F62" stroke-linecap="round" stroke-linejoin="round"/>
</g>
</svg>
