<svg width="18" height="21" viewBox="0 0 18 21" fill="none" xmlns="http://www.w3.org/2000/svg">
<g id="Group 2281">
<path id="Vector" d="M7.33935 3.5C7.33935 2.96957 7.55007 2.46086 7.92514 2.08579C8.30021 1.71071 8.80892 1.5 9.33935 1.5C9.86978 1.5 10.3785 1.71071 10.7536 2.08579C11.1286 2.46086 11.3394 2.96957 11.3394 3.5C12.4878 4.04303 13.4668 4.88832 14.1714 5.9453C14.876 7.00227 15.2798 8.23107 15.3393 9.5V12.5C15.4146 13.1217 15.6348 13.7171 15.9822 14.2381C16.3295 14.7592 16.7944 15.1914 17.3393 15.5H1.33936C1.88429 15.1914 2.34916 14.7592 2.69654 14.2381C3.04392 13.7171 3.2641 13.1217 3.33935 12.5V9.5C3.39891 8.23107 3.80266 7.00227 4.5073 5.9453C5.21195 4.88832 6.19094 4.04303 7.33935 3.5Z" stroke="#5A5F62" stroke-width="1.125" stroke-linecap="round" stroke-linejoin="round"/>
<path id="Vector_2" d="M6.34033 15.5V16.5C6.34033 17.2956 6.6564 18.0587 7.21901 18.6213C7.78162 19.1839 8.54468 19.5 9.34033 19.5C10.136 19.5 10.899 19.1839 11.4617 18.6213C12.0243 18.0587 12.3403 17.2956 12.3403 16.5V15.5" stroke="#5A5F62" stroke-width="1.125" stroke-linecap="round" stroke-linejoin="round"/>
</g>
</svg>
