<svg width="16" height="19" viewBox="0 0 16 19" fill="none" xmlns="http://www.w3.org/2000/svg">
<g id="Group 2295">
<path id="Vector" d="M10 0.488525V4.48853C10 4.75374 10.1054 5.0081 10.2929 5.19563C10.4804 5.38317 10.7348 5.48853 11 5.48853H15" stroke="#2C2C2C" stroke-width="0.967399"/>
<path id="Vector_2" d="M13 18.4885H3C2.46957 18.4885 1.96086 18.2778 1.58579 17.9027C1.21071 17.5277 1 17.019 1 16.4885V2.48853C1 1.95809 1.21071 1.44938 1.58579 1.07431C1.96086 0.699239 2.46957 0.488525 3 0.488525H10L15 5.48853V16.4885C15 17.019 14.7893 17.5277 14.4142 17.9027C14.0391 18.2778 13.5304 18.4885 13 18.4885Z" stroke="#2C2C2C" stroke-width="0.967399"/>
<path id="Vector_3" d="M5 14.4885V9.48853" stroke="#2C2C2C" stroke-width="0.967399"/>
<path id="Vector_4" d="M8 14.4885V13.4885" stroke="#2C2C2C" stroke-width="0.967399"/>
<path id="Vector_5" d="M11 14.4885V11.4885" stroke="#2C2C2C" stroke-width="0.967399"/>
</g>
</svg>
