<svg width="25" height="24" viewBox="0 0 25 24" fill="none" xmlns="http://www.w3.org/2000/svg">
<g id="layout-dashboard">
<g id="Vector">
<path id="Vector_2" fill-rule="evenodd" clip-rule="evenodd" d="M9.01769 10.9548H5.3714C4.83638 10.951 4.3215 11.1318 3.94005 11.4574C3.5586 11.7831 3.34182 12.227 3.3374 12.6914V19.2637C3.3473 20.2304 4.25777 21.0072 5.3714 20.9992H9.01769C9.55271 21.003 10.0676 20.8222 10.449 20.4966C10.8305 20.1709 11.0473 19.727 11.0517 19.2626V12.6914C11.0473 12.227 10.8305 11.7831 10.449 11.4574C10.0676 11.1318 9.55271 10.951 9.01769 10.9548Z" fill="#2C2C2C" stroke="#2C2C2C" stroke-width="1.33333" stroke-linecap="round" stroke-linejoin="round"/>
<path id="Vector-2" fill-rule="evenodd" clip-rule="evenodd" d="M9.01769 3.00066H5.3714C4.28016 2.97242 3.3703 3.77378 3.3374 4.79212V6.00882C3.3703 7.02715 4.28016 7.82852 5.3714 7.80027H9.01769C10.1089 7.82852 11.0188 7.02715 11.0517 6.00882V4.79212C11.0188 3.77378 10.1089 2.97242 9.01769 3.00066Z" fill="#2C2C2C" stroke="#2C2C2C" stroke-width="1.33333" stroke-linecap="round" stroke-linejoin="round"/>
<path id="Vector-3" fill-rule="evenodd" clip-rule="evenodd" d="M15.6585 12.8899H19.3035C19.8388 12.894 20.354 12.7162 20.7357 12.3955C21.1174 12.0748 21.3344 11.6376 21.3388 11.1802V4.71046C21.3344 4.25322 21.1176 3.81621 20.7361 3.49557C20.3547 3.17493 19.8398 2.99693 19.3048 3.00073H15.6585C15.1235 2.99693 14.6086 3.17493 14.2272 3.49557C13.8457 3.81621 13.6289 4.25322 13.6245 4.71046V11.1802C13.6289 11.6374 13.8457 12.0745 14.2272 12.3951C14.6086 12.7157 15.1235 12.8937 15.6585 12.8899Z" fill="#2C2C2C" stroke="#2C2C2C" stroke-width="1.33333" stroke-linecap="round" stroke-linejoin="round"/>
<path id="Vector-4" fill-rule="evenodd" clip-rule="evenodd" d="M15.6585 20.9992H19.3035C20.3952 21.0281 21.3059 20.2265 21.3388 19.2077V17.991C21.3059 16.9727 20.396 16.1713 19.3048 16.1996H15.6585C14.5673 16.1713 13.6574 16.9727 13.6245 17.991V19.2065C13.6567 20.2253 14.5668 21.0274 15.6585 20.9992Z" fill="#2C2C2C" stroke="#2C2C2C" stroke-width="1.33333" stroke-linecap="round" stroke-linejoin="round"/>
</g>
</g>
</svg>
