<svg width="12" height="16" viewBox="0 0 12 16" fill="none" xmlns="http://www.w3.org/2000/svg">
<g id="Group 2290">
<path id="Vector" d="M3.75 3.125C3.75 2.52826 3.98705 1.95597 4.40901 1.53401C4.83097 1.11205 5.40326 0.875 6 0.875C6.59674 0.875 7.16903 1.11205 7.59099 1.53401C8.01295 1.95597 8.25 2.52826 8.25 3.125V6.875C8.25 7.47174 8.01295 8.04403 7.59099 8.46599C7.16903 8.88795 6.59674 9.125 6 9.125C5.40326 9.125 4.83097 8.88795 4.40901 8.46599C3.98705 8.04403 3.75 7.47174 3.75 6.875V3.125Z" stroke="#5C9CD4" stroke-width="0.75" stroke-linecap="round" stroke-linejoin="round"/>
<path id="Vector_2" d="M0.75 6.875C0.75 8.26739 1.30312 9.60274 2.28769 10.5873C3.27226 11.5719 4.60761 12.125 6 12.125C7.39239 12.125 8.72774 11.5719 9.71231 10.5873C10.6969 9.60274 11.25 8.26739 11.25 6.875" stroke="#5C9CD4" stroke-width="0.75" stroke-linecap="round" stroke-linejoin="round"/>
<path id="Vector_3" d="M3 15.125H9" stroke="#5C9CD4" stroke-width="0.75" stroke-linecap="round" stroke-linejoin="round"/>
<path id="Vector_4" d="M6 12.125V15.125" stroke="#5C9CD4" stroke-width="0.75" stroke-linecap="round" stroke-linejoin="round"/>
</g>
</svg>
