<svg width="239" height="229" viewBox="0 0 239 229" fill="none" xmlns="http://www.w3.org/2000/svg">
<path id="RadarGrid" fill-rule="evenodd" clip-rule="evenodd" d="M105.232 5.24922C113.644 -0.862234 125.034 -0.862233 133.446 5.24922L227.729 73.7494C236.14 79.8608 239.66 90.6937 236.447 100.582L200.434 211.418C197.221 221.306 188.006 228.001 177.609 228.001H61.0696C50.6722 228.001 41.4572 221.306 38.2443 211.418L2.2316 100.582C-0.981386 90.6937 2.53841 79.8608 10.9501 73.7494L105.232 5.24922ZM105.233 31.0092C113.644 24.8978 125.034 24.8978 133.446 31.0092L203.229 81.7097C211.641 87.8211 215.161 98.6539 211.948 108.542L185.293 190.578C182.08 200.466 172.865 207.161 162.468 207.161H76.211C65.8135 207.161 56.5986 200.466 53.3856 190.578L26.7308 108.542C23.5178 98.6539 27.0376 87.8211 35.4493 81.7097L105.233 31.0092ZM105.233 56.7692C113.644 50.6578 125.034 50.6578 133.446 56.7692L178.73 89.67C187.142 95.7814 190.662 106.614 187.449 116.503L170.152 169.737C166.939 179.626 157.724 186.321 147.326 186.321H91.3523C80.9549 186.321 71.7399 179.626 68.527 169.737L51.23 116.503C48.017 106.614 51.5368 95.7814 59.9485 89.6699L105.233 56.7692ZM105.232 82.5292C113.644 76.4178 125.034 76.4178 133.446 82.5292L154.231 97.6302C162.643 103.742 166.162 114.574 162.949 124.463L155.01 148.897C151.797 158.786 142.582 165.481 132.185 165.481H106.494C96.0962 165.481 86.8813 158.786 83.6683 148.897L75.7292 124.463C72.5163 114.574 76.0361 103.742 84.4478 97.6302L105.232 82.5292ZM107.09 106.94C114.394 101.633 124.285 101.633 131.589 106.94C138.893 112.247 141.95 121.653 139.16 130.24C136.37 138.827 128.368 144.64 119.339 144.64C110.311 144.64 102.309 138.827 99.5191 130.24C96.7291 121.653 99.7855 112.247 107.09 106.94Z" fill="#F9F9F9" stroke="#C3CDE0"/>
</svg>
