<svg width="24" height="25" viewBox="0 0 24 25" fill="none" xmlns="http://www.w3.org/2000/svg">
<g id="layout-dashboard">
<path id="Subtract" fill-rule="evenodd" clip-rule="evenodd" d="M7 21.5H17C17.5304 21.5 18.0391 21.2893 18.4142 20.9142C18.7893 20.5391 19 20.0304 19 19.5V8.91421C19 8.649 18.8946 8.39464 18.7071 8.20711L14.2929 3.79289C14.1054 3.60536 13.851 3.5 13.5858 3.5H7C6.46957 3.5 5.96086 3.71071 5.58579 4.08579C5.21071 4.46086 5 4.96957 5 5.5V19.5C5 20.0304 5.21071 20.5391 5.58579 20.9142C5.96086 21.2893 6.46957 21.5 7 21.5ZM9.5 12.5H8.5V17.5H9.5V12.5ZM14.5 14.5H15.5V17.5H14.5V14.5ZM12.5 16.5H11.5V17.5H12.5V16.5Z" fill="#2C2C2C"/>
</g>
</svg>
