<svg width="24" height="25" viewBox="0 0 24 25" fill="none" xmlns="http://www.w3.org/2000/svg">
<g id="layout-dashboard">
<g id="Group 2293">
<g id="Group 2292">
<path id="Vector" d="M6 4.48853H16L20 8.48853V18.4885C20 19.019 19.7893 19.5277 19.4142 19.9027C19.0391 20.2778 18.5304 20.4885 18 20.4885H6C5.46957 20.4885 4.96086 20.2778 4.58579 19.9027C4.21071 19.5277 4 19.019 4 18.4885V6.48853C4 5.95809 4.21071 5.44938 4.58579 5.07431C4.96086 4.69924 5.46957 4.48853 6 4.48853Z" stroke="#2C2C2C" stroke-width="0.967399"/>
<path id="Vector_2" d="M10 14.4885C10 15.019 10.2107 15.5277 10.5858 15.9027C10.9609 16.2778 11.4696 16.4885 12 16.4885C12.5304 16.4885 13.0391 16.2778 13.4142 15.9027C13.7893 15.5277 14 15.019 14 14.4885C14 13.9581 13.7893 13.4494 13.4142 13.0743C13.0391 12.6992 12.5304 12.4885 12 12.4885C11.4696 12.4885 10.9609 12.6992 10.5858 13.0743C10.2107 13.4494 10 13.9581 10 14.4885Z" stroke="#2C2C2C" stroke-width="0.967399"/>
<path id="Vector_3" d="M14 4.48853V8.48853H8V4.48853" stroke="#2C2C2C" stroke-width="0.967399"/>
</g>
</g>
</g>
</svg>
