<svg width="25" height="24" viewBox="0 0 25 24" fill="none" xmlns="http://www.w3.org/2000/svg">
<g id="layout-dashboard">
<g id="Group 2286">
<path id="Vector" d="M12.5594 2H12.1194C11.5889 2 11.0802 2.21071 10.7051 2.58579C10.3301 2.96086 10.1194 3.46957 10.1194 4V4.18C10.119 4.53073 10.0264 4.87519 9.8509 5.17884C9.67538 5.48248 9.4231 5.73464 9.11936 5.91L8.68936 6.16C8.38532 6.33554 8.04043 6.42795 7.68936 6.42795C7.33828 6.42795 6.9934 6.33554 6.68936 6.16L6.53936 6.08C6.08042 5.81526 5.53519 5.74344 5.02336 5.88031C4.51152 6.01717 4.07491 6.35154 3.80936 6.81L3.58936 7.19C3.32462 7.64893 3.2528 8.19416 3.38967 8.706C3.52653 9.21783 3.86089 9.65445 4.31936 9.92L4.46936 10.02C4.77163 10.1945 5.02298 10.4451 5.19841 10.7468C5.37384 11.0486 5.46725 11.391 5.46936 11.74V12.25C5.47076 12.6024 5.37901 12.949 5.2034 13.2545C5.02779 13.5601 4.77457 13.8138 4.46936 13.99L4.31936 14.08C3.86089 14.3456 3.52653 14.7822 3.38967 15.294C3.2528 15.8058 3.32462 16.3511 3.58936 16.81L3.80936 17.19C4.07491 17.6485 4.51152 17.9828 5.02336 18.1197C5.53519 18.2566 6.08042 18.1847 6.53936 17.92L6.68936 17.84C6.9934 17.6645 7.33828 17.5721 7.68936 17.5721C8.04043 17.5721 8.38532 17.6645 8.68936 17.84L9.11936 18.09C9.4231 18.2654 9.67538 18.5175 9.8509 18.8212C10.0264 19.1248 10.119 19.4693 10.1194 19.82V20C10.1194 20.5304 10.3301 21.0391 10.7051 21.4142C11.0802 21.7893 11.5889 22 12.1194 22H12.5594C13.0898 22 13.5985 21.7893 13.9736 21.4142C14.3486 21.0391 14.5594 20.5304 14.5594 20V19.82C14.5597 19.4693 14.6523 19.1248 14.8278 18.8212C15.0033 18.5175 15.2556 18.2654 15.5594 18.09L15.9894 17.84C16.2934 17.6645 16.6383 17.5721 16.9894 17.5721C17.3404 17.5721 17.6853 17.6645 17.9894 17.84L18.1394 17.92C18.5983 18.1847 19.1435 18.2566 19.6554 18.1197C20.1672 17.9828 20.6038 17.6485 20.8694 17.19L21.0894 16.8C21.3541 16.3411 21.4259 15.7958 21.2891 15.284C21.1522 14.7722 20.8178 14.3356 20.3594 14.07L20.2094 13.99C19.9042 13.8138 19.6509 13.5601 19.4753 13.2545C19.2997 12.949 19.208 12.6024 19.2094 12.25V11.75C19.208 11.3976 19.2997 11.051 19.4753 10.7455C19.6509 10.4399 19.9042 10.1862 20.2094 10.01L20.3594 9.92C20.8178 9.65445 21.1522 9.21783 21.2891 8.706C21.4259 8.19416 21.3541 7.64893 21.0894 7.19L20.8694 6.81C20.6038 6.35154 20.1672 6.01717 19.6554 5.88031C19.1435 5.74344 18.5983 5.81526 18.1394 6.08L17.9894 6.16C17.6853 6.33554 17.3404 6.42795 16.9894 6.42795C16.6383 6.42795 16.2934 6.33554 15.9894 6.16L15.5594 5.91C15.2556 5.73464 15.0033 5.48248 14.8278 5.17884C14.6523 4.87519 14.5597 4.53073 14.5594 4.18V4C14.5594 3.46957 14.3486 2.96086 13.9736 2.58579C13.5985 2.21071 13.0898 2 12.5594 2V2Z" stroke="#2C2C2C" stroke-linecap="round" stroke-linejoin="round"/>
<path id="Vector_2" d="M12.3413 15C13.9982 15 15.3413 13.6569 15.3413 12C15.3413 10.3431 13.9982 9 12.3413 9C10.6845 9 9.34131 10.3431 9.34131 12C9.34131 13.6569 10.6845 15 12.3413 15Z" stroke="#2C2C2C" stroke-linecap="round" stroke-linejoin="round"/>
</g>
</g>
</svg>
