<svg width="14" height="16" viewBox="0 0 14 16" fill="none" xmlns="http://www.w3.org/2000/svg">
<path id="Vector" d="M8.94628 4.32824L4.23021 9.04431C3.94157 9.33295 3.77942 9.72443 3.77942 10.1326C3.77942 10.5408 3.94157 10.9323 4.23021 11.221C4.51886 11.5096 4.91034 11.6718 5.31854 11.6718C5.72674 11.6718 6.11822 11.5096 6.40686 11.221L11.1229 6.50489C11.7002 5.92761 12.0245 5.14464 12.0245 4.32824C12.0245 3.51184 11.7002 2.72888 11.1229 2.1516C10.5456 1.57431 9.76268 1.25 8.94628 1.25C8.12988 1.25 7.34692 1.57431 6.76963 2.1516L2.05357 6.86766C1.18764 7.73359 0.701172 8.90803 0.701172 10.1326C0.701172 11.3572 1.18764 12.5317 2.05357 13.3976C2.91949 14.2635 4.09394 14.75 5.31854 14.75C6.54314 14.75 7.71758 14.2635 8.58351 13.3976L13.2996 8.68154" stroke="#5C9CD4" stroke-width="0.725549"/>
</svg>
